<mxfile host="65bd71144e">
    <diagram id="40rp25GwIVqN_V4qA8UU" name="Page-1">
        <mxGraphModel dx="585" dy="689" grid="1" gridSize="10" guides="1" tooltips="1" connect="1" arrows="1" fold="1" page="1" pageScale="1" pageWidth="827" pageHeight="1169" math="0" shadow="0">
            <root>
                <mxCell id="0"/>
                <mxCell id="1" parent="0"/>
                <mxCell id="2" value="リバーシ&lt;br&gt;アプリケーション" style="rounded=0;whiteSpace=wrap;html=1;fillColor=none;align=center;verticalAlign=top;" vertex="1" parent="1">
                    <mxGeometry x="214" y="410" width="416" height="400" as="geometry"/>
                </mxCell>
                <mxCell id="3" value="プレイヤー" style="shape=umlActor;verticalLabelPosition=bottom;verticalAlign=top;html=1;outlineConnect=0;fillColor=none;" vertex="1" parent="1">
                    <mxGeometry x="80" y="525" width="30" height="60" as="geometry"/>
                </mxCell>
                <mxCell id="4" value="対戦する" style="ellipse;whiteSpace=wrap;html=1;fillColor=none;" vertex="1" parent="1">
                    <mxGeometry x="240" y="560" width="140" height="70" as="geometry"/>
                </mxCell>
                <mxCell id="6" value="" style="endArrow=none;html=1;entryX=0;entryY=0.5;entryDx=0;entryDy=0;" edge="1" parent="1" source="3" target="4">
                    <mxGeometry relative="1" as="geometry">
                        <mxPoint x="390" y="900" as="sourcePoint"/>
                        <mxPoint x="250" y="595" as="targetPoint"/>
                    </mxGeometry>
                </mxCell>
                <mxCell id="11" value="&lt;ul&gt;&lt;li&gt;対戦を開始知る&lt;/li&gt;&lt;li&gt;盤面を見る&lt;/li&gt;&lt;li&gt;石を打つ&lt;/li&gt;&lt;li&gt;勝敗を確認する&lt;/li&gt;&lt;/ul&gt;" style="shape=note;whiteSpace=wrap;html=1;backgroundOutline=1;darkOpacity=0.05;fillColor=#ffe6cc;strokeColor=#d79b00;align=left;" vertex="1" parent="1">
                    <mxGeometry x="460" y="470" width="156" height="100" as="geometry"/>
                </mxCell>
                <mxCell id="12" value="" style="endArrow=none;html=1;entryX=0;entryY=0.5;entryDx=0;entryDy=0;entryPerimeter=0;exitX=1;exitY=0;exitDx=0;exitDy=0;dashed=1;" edge="1" parent="1" source="4" target="11">
                    <mxGeometry relative="1" as="geometry">
                        <mxPoint x="190" y="800" as="sourcePoint"/>
                        <mxPoint x="350" y="800" as="targetPoint"/>
                    </mxGeometry>
                </mxCell>
                <mxCell id="15" value="会員登録する&lt;br&gt;ログインする" style="ellipse;whiteSpace=wrap;html=1;fillColor=none;" vertex="1" parent="1">
                    <mxGeometry x="240" y="460" width="140" height="70" as="geometry"/>
                </mxCell>
                <mxCell id="16" value="自分の過去の対戦結果を確認する" style="ellipse;whiteSpace=wrap;html=1;fillColor=none;" vertex="1" parent="1">
                    <mxGeometry x="250" y="660" width="140" height="70" as="geometry"/>
                </mxCell>
                <mxCell id="17" value="" style="endArrow=none;html=1;entryX=0;entryY=0.5;entryDx=0;entryDy=0;" edge="1" parent="1" target="16">
                    <mxGeometry relative="1" as="geometry">
                        <mxPoint x="120" y="569" as="sourcePoint"/>
                        <mxPoint x="250" y="605" as="targetPoint"/>
                    </mxGeometry>
                </mxCell>
                <mxCell id="18" value="" style="endArrow=none;html=1;entryX=0;entryY=0.5;entryDx=0;entryDy=0;exitX=1;exitY=0.3333333333333333;exitDx=0;exitDy=0;exitPerimeter=0;" edge="1" parent="1" source="3" target="15">
                    <mxGeometry relative="1" as="geometry">
                        <mxPoint x="130" y="579.1379310344828" as="sourcePoint"/>
                        <mxPoint x="260" y="615" as="targetPoint"/>
                    </mxGeometry>
                </mxCell>
                <mxCell id="19" value="１人で白黒交互に打つ&lt;span style=&quot;color: rgba(0, 0, 0, 0); font-family: monospace; font-size: 0px; text-align: start;&quot;&gt;%3CmxGraphModel%3E%3Croot%3E%3CmxCell%20id%3D%220%22%2F%3E%3CmxCell%20id%3D%221%22%20parent%3D%220%22%2F%3E%3CmxCell%20id%3D%222%22%20value%3D%22%E5%AF%BE%E6%88%A6%E3%81%99%E3%82%8B%22%20style%3D%22ellipse%3BwhiteSpace%3Dwrap%3Bhtml%3D1%3BfillColor%3Dnone%3B%22%20vertex%3D%221%22%20parent%3D%221%22%3E%3CmxGeometry%20x%3D%22240%22%20y%3D%22560%22%20width%3D%22140%22%20height%3D%2270%22%20as%3D%22geometry%22%2F%3E%3C%2FmxCell%3E%3C%2Froot%3E%3C%2FmxGraphModel%3E&lt;/span&gt;" style="ellipse;whiteSpace=wrap;html=1;fillColor=none;" vertex="1" parent="1">
                    <mxGeometry x="460" y="600" width="140" height="70" as="geometry"/>
                </mxCell>
                <mxCell id="20" value="コンピューターと対戦する" style="ellipse;whiteSpace=wrap;html=1;fillColor=none;" vertex="1" parent="1">
                    <mxGeometry x="460" y="810" width="140" height="70" as="geometry"/>
                </mxCell>
                <mxCell id="21" value="ほかのぷれいやーと代船する" style="ellipse;whiteSpace=wrap;html=1;fillColor=none;" vertex="1" parent="1">
                    <mxGeometry x="450" y="910" width="140" height="70" as="geometry"/>
                </mxCell>
                <mxCell id="22" value="Extends" style="endArrow=block;endSize=16;endFill=0;html=1;dashed=1;exitX=0;exitY=0.5;exitDx=0;exitDy=0;entryX=1;entryY=0.5;entryDx=0;entryDy=0;" edge="1" parent="1" source="19" target="4">
                    <mxGeometry width="160" relative="1" as="geometry">
                        <mxPoint x="290" y="760" as="sourcePoint"/>
                        <mxPoint x="450" y="760" as="targetPoint"/>
                    </mxGeometry>
                </mxCell>
                <mxCell id="24" value="Extends" style="endArrow=block;endSize=16;endFill=0;html=1;dashed=1;exitX=0;exitY=0.5;exitDx=0;exitDy=0;entryX=0.967;entryY=0.681;entryDx=0;entryDy=0;entryPerimeter=0;" edge="1" parent="1" source="20" target="4">
                    <mxGeometry width="160" relative="1" as="geometry">
                        <mxPoint x="470" y="645" as="sourcePoint"/>
                        <mxPoint x="390" y="605" as="targetPoint"/>
                    </mxGeometry>
                </mxCell>
                <mxCell id="25" value="Extends" style="endArrow=block;endSize=16;endFill=0;html=1;dashed=1;exitX=0;exitY=0.5;exitDx=0;exitDy=0;entryX=1;entryY=1;entryDx=0;entryDy=0;" edge="1" parent="1" source="21" target="4">
                    <mxGeometry width="160" relative="1" as="geometry">
                        <mxPoint x="480" y="655" as="sourcePoint"/>
                        <mxPoint x="400" y="615" as="targetPoint"/>
                    </mxGeometry>
                </mxCell>
                <mxCell id="26" value="プレイヤーのラキングを確認する" style="ellipse;whiteSpace=wrap;html=1;fillColor=none;" vertex="1" parent="1">
                    <mxGeometry x="250" y="750" width="140" height="70" as="geometry"/>
                </mxCell>
                <mxCell id="28" value="" style="endArrow=none;html=1;entryX=0;entryY=0.5;entryDx=0;entryDy=0;" edge="1" parent="1" target="26">
                    <mxGeometry relative="1" as="geometry">
                        <mxPoint x="110" y="590" as="sourcePoint"/>
                        <mxPoint x="260" y="705" as="targetPoint"/>
                    </mxGeometry>
                </mxCell>
                <mxCell id="29" value="" style="rounded=0;whiteSpace=wrap;html=1;fillColor=none;strokeColor=#3700CC;fontColor=#ffffff;strokeWidth=4;" vertex="1" parent="1">
                    <mxGeometry x="230" y="560" width="380" height="180" as="geometry"/>
                </mxCell>
            </root>
        </mxGraphModel>
    </diagram>
</mxfile>